<svg enable-background="new 0 0 70 70" id="Layer_1" version="1.1" viewBox="0 0 70 70" xml:space="preserve" xmlns="http://www.w3.org/2000/svg" xmlns:xlink="http://www.w3.org/1999/xlink" fill="none" stroke="currentColor" stroke-width="2" stroke-linecap="round" stroke-linejoin="round">
  <path stroke-width="2" d="M54.5859375,66c-0.0009766,0-0.0019531,0-0.0019531,0   c-1.4990234-0.0019531-3.0263672-1.2734375-4.6435547-2.6201172c-1.3652344-1.1376953-2.7773438-2.3134766-3.9765625-2.5732422   c-1.5546875-0.3398438-4.6142578-0.0273438-7.8535156,0.3017578c-2.3818359,0.2412109-4.8447266,0.4902344-7.0292969,0.5185547   c-4.3398438,0.0625-9.3095703-1.8544922-14.8759766-5.6757813C12.5458984,53.4384766,4.2734375,43.7001953,4.0146484,41.1162109   c-0.1044922-1.0400391,0.3623047-1.9345703,1.2792969-2.4550781c1.5654297-0.8867188,4.4121094-0.5751953,6.0927734,0.6728516   c4.2451172,3.1542969,8.671875,5.8154297,10.9755859,6.8466797c0.1503906-0.7148438,0.4365234-1.3144531,0.8320313-1.7109375   c2.0185547-2.0185547,5.6757813-1.9248047,8.6171875-1.8496094c0.9287109,0.0244141,1.8037109,0.0458984,2.3691406-0.0195313   c2.0976563-0.2470703,3.3955078-0.6513672,4.8984375-1.1210938c0.4492188-0.1396484,0.9101563-0.2832031,1.40625-0.4267578   c3.7128906-1.078125,8.4755859-0.0976563,10.9335938,1.4726563c1.4003906,0.8945313,2.1777344,2.1992188,2.9287109,3.4609375   c0.5693359,0.9550781,1.1074219,1.8574219,1.8730469,2.4892578c0.7294922,0.6015625,1.7978516,1.3427734,2.9287109,2.1279297   C63.2910156,53.4794922,66.0048828,55.5166016,66,57.5478516C65.9921875,60.7177734,57.015625,66,54.5859375,66z    M44.1386719,58.6611328c0.8671875,0,1.625,0.0556641,2.2490234,0.1904297   c1.6787109,0.3652344,3.2822266,1.7001953,4.8330078,2.9912109c1.2138672,1.0107422,2.5898438,2.15625,3.3652344,2.1572266   c0.0009766,0,0.0019531,0,0.0019531,0C56.6757813,64,63.9736328,58.9931641,64,57.5419922   c0.0029297-1.1337891-3.8964844-3.8408203-5.9912109-5.2958984c-1.1660156-0.8085938-2.2666016-1.5732422-3.0595703-2.2275391   c-1.0351563-0.8525391-1.6875-1.9482422-2.3193359-3.0087891c-0.6621094-1.1103516-1.2871094-2.1591797-2.2871094-2.7988281   c-2.0380859-1.3017578-6.1738281-2.1464844-9.3007813-1.2382813c-0.4824219,0.140625-0.9296875,0.2802734-1.3671875,0.4160156   c-1.5322266,0.4785156-2.9785156,0.9296875-5.2607422,1.1982422c-0.7060547,0.0830078-1.6074219,0.0605469-2.6542969,0.0332031   c-2.4228516-0.0625-5.7402344-0.1464844-7.1503906,1.2626953c-0.0898438,0.0898438-0.2509766,0.4150391-0.3261719,0.9277344   c2.5146484,0.5761719,6.4541016,0.7207031,9.9716797,0.8496094c3.6523438,0.1347656,6.8076172,0.2509766,8.5341797,0.7636719   L42.21875,50.3417969c-1.4833984-0.4414063-4.6669922-0.5585938-8.0371094-0.6826172   c-4.2441406-0.15625-8.6318359-0.3173828-11.2363281-1.1367188c-2.046875-0.4912109-7.7958984-3.9013672-12.7519531-7.5830078   c-1.0214844-0.7597656-3.0332031-1.0380859-3.9130859-0.5380859c-0.2597656,0.1474609-0.2978516,0.2949219-0.2753906,0.515625   c0.1738281,1.5507813,7.5273438,10.7724609,11.3330078,13.3857422c5.1474609,3.5341797,9.7089844,5.3251953,13.5595703,5.3251953   c0.0527344,0,0.1054688,0,0.1582031-0.0009766c2.0966797-0.0263672,4.5146484-0.2714844,6.8535156-0.5087891   C40.2705078,58.8789063,42.4169922,58.6611328,44.1386719,58.6611328z" fill="#232323"/>
  <path stroke-width="2" d="M35,38.5917969L19.2294922,22.8208008C17.1474609,20.7382813,16,17.9697266,16,15.0249023   s1.1474609-5.7133789,3.2294922-7.7958984C21.3115234,5.1469727,24.0800781,4,27.0253906,4   s5.7138672,1.1469727,7.7958984,3.2290039C34.8808594,7.2890625,34.9404297,7.3505859,35,7.4130859   c0.0585938-0.0625,0.1181641-0.1230469,0.1777344-0.1831055C37.2607422,5.1469727,40.0292969,4,42.9746094,4   s5.7138672,1.1469727,7.7958984,3.2290039C52.8525391,9.3115234,54,12.0800781,54,15.0249023   s-1.1474609,5.7133789-3.2294922,7.7958984L35,38.5917969z M27.0253906,6c-2.4111328,0-4.6767578,0.9389648-6.3818359,2.6430664   C18.9394531,10.3476563,18,12.6142578,18,15.0249023s0.9394531,4.6772461,2.6435547,6.3818359L35,35.7636719l14.3564453-14.3569336   C51.0605469,19.7021484,52,17.4355469,52,15.0249023s-0.9394531-4.6772461-2.6435547-6.3818359   C47.6513672,6.9389648,45.3857422,6,42.9746094,6s-4.6767578,0.9389648-6.3818359,2.6430664   c-0.2597656,0.2602539-0.5126953,0.5556641-0.796875,0.9291992L35,10.6186523l-0.7958984-1.0463867   c-0.2841797-0.3735352-0.5371094-0.6689453-0.7978516-0.9301758C31.7021484,6.9389648,29.4365234,6,27.0253906,6z" fill="#232323"/>
</svg>
