<svg xmlns="http://www.w3.org/2000/svg" width="24" height="24" viewBox="0 0 24 24" fill="none" stroke="currentColor" stroke-width="2" stroke-linecap="round" stroke-linejoin="round" class="feather feather-linkedin">
  <path stroke-width="1.8" d="m5.839218,4.101561c0,1.211972 -0.974141,2.194011 -2.176459,2.194011s-2.176459,-0.982039 -2.176459,-2.194011c0,-1.211094 0.974141,-2.194011 2.176459,-2.194011s2.176459,0.982917 2.176459,2.194011zm0.017552,3.94922l-4.388022,0l0,14.04167l4.388022,0l0,-14.04167zm7.005038,0l-4.359939,0l0,14.04167l4.360816,0l0,-7.370999c0,-4.098413 5.291077,-4.433657 5.291077,0l0,7.370999l4.377491,0l0,-8.89101c0,-6.915523 -7.829986,-6.66365 -9.669445,-3.259423l0,-1.891237z"/>
</svg>
